<svg xmlns="http://www.w3.org/2000/svg" xmlns:xlink="http://www.w3.org/1999/xlink" width="1000" zoomAndPan="magnify" viewBox="0 0 750 749.999995" height="1000" preserveAspectRatio="xMidYMid meet" version="1.0"><defs><g/><clipPath id="21c55c40ba"><path d="M 375 0 C 167.894531 0 0 167.894531 0 375 C 0 582.105469 167.894531 750 375 750 C 582.105469 750 750 582.105469 750 375 C 750 167.894531 582.105469 0 375 0 Z M 375 0 " clip-rule="nonzero"/></clipPath></defs><g clip-path="url(#21c55c40ba)"><rect x="-75" width="900" fill="#000000" y="-74.999999" height="899.999994" fill-opacity="1"/></g><g fill="#ffffff" fill-opacity="1"><g transform="translate(178.027085, 458.548421)"><g><path d="M 123.90625 -158.71875 L 91.515625 -158.71875 C 93.941406 -171.132812 96.097656 -183.957031 97.984375 -197.1875 C 99.878906 -210.414062 103.117188 -223.644531 107.703125 -236.875 C 111.484375 -248.207031 116.273438 -255.628906 122.078125 -259.140625 C 127.878906 -262.648438 133.078125 -264.40625 137.671875 -264.40625 C 142.796875 -264.40625 145.765625 -263.863281 146.578125 -262.78125 C 146.847656 -262.507812 146.984375 -262.101562 146.984375 -261.5625 C 146.984375 -259.945312 145.769531 -258.597656 143.34375 -257.515625 C 141.175781 -255.898438 139.484375 -254.007812 138.265625 -251.84375 C 137.054688 -249.6875 136.453125 -246.71875 136.453125 -242.9375 C 136.453125 -237.539062 138.273438 -233.359375 141.921875 -230.390625 C 145.566406 -227.421875 149.679688 -225.9375 154.265625 -225.9375 C 160.203125 -225.9375 164.65625 -227.894531 167.625 -231.8125 C 170.59375 -235.726562 172.078125 -240.25 172.078125 -245.375 C 172.078125 -253.195312 169.242188 -259.398438 163.578125 -263.984375 C 157.910156 -268.578125 149.8125 -270.875 139.28125 -270.875 C 129.03125 -270.875 119.71875 -268.914062 111.34375 -265 C 102.976562 -261.09375 95.421875 -254.753906 88.671875 -245.984375 C 81.921875 -237.210938 75.914062 -225.671875 70.65625 -211.359375 C 65.394531 -197.054688 60.738281 -179.507812 56.6875 -158.71875 L 26.71875 -158.71875 L 24.703125 -151.84375 L 54.65625 -151.84375 C 51.6875 -138.613281 48.109375 -121.066406 43.921875 -99.203125 C 39.742188 -77.335938 35.226562 -53.445312 30.375 -27.53125 C 26.59375 -8.09375 22.675781 9.453125 18.625 25.109375 C 14.570312 40.765625 10.113281 54.125 5.25 65.1875 C 0.394531 76.257812 -4.796875 84.765625 -10.328125 90.703125 C -15.859375 96.640625 -21.863281 99.609375 -28.34375 99.609375 C -31.851562 99.609375 -33.609375 98.929688 -33.609375 97.578125 C -33.609375 96.503906 -32.796875 95.289062 -31.171875 93.9375 C -29.015625 92.582031 -27.125 90.625 -25.5 88.0625 C -23.882812 85.5 -23.078125 82.328125 -23.078125 78.546875 C -23.078125 73.960938 -24.695312 69.914062 -27.9375 66.40625 C -31.175781 62.894531 -35.359375 61.140625 -40.484375 61.140625 C -45.890625 61.140625 -50.34375 62.894531 -53.84375 66.40625 C -57.351562 69.914062 -59.109375 74.910156 -59.109375 81.390625 C -59.109375 86.242188 -58.03125 90.289062 -55.875 93.53125 C -53.71875 96.769531 -51.15625 99.332031 -48.1875 101.21875 C -45.21875 103.113281 -42.046875 104.394531 -38.671875 105.0625 C -35.296875 105.738281 -32.394531 106.078125 -29.96875 106.078125 C -19.707031 106.078125 -10.1875 103.78125 -1.40625 99.1875 C 7.363281 94.601562 15.390625 87.453125 22.671875 77.734375 C 29.960938 68.023438 36.710938 55.539062 42.921875 40.28125 C 49.128906 25.03125 54.929688 6.609375 60.328125 -14.984375 C 68.160156 -46.023438 74.300781 -73.015625 78.75 -95.953125 C 83.207031 -118.898438 87.054688 -137.53125 90.296875 -151.84375 L 122.28125 -151.84375 Z M 123.90625 -158.71875 "/></g></g></g><g fill="#ffffff" fill-opacity="1"><g transform="translate(304.357289, 458.548421)"><g><path d="M 110.9375 -235.25 C 110.9375 -240.375 109.316406 -244.894531 106.078125 -248.8125 C 102.847656 -252.726562 97.859375 -254.6875 91.109375 -254.6875 C 83.546875 -254.6875 77.875 -252.320312 74.09375 -247.59375 C 70.3125 -242.875 68.421875 -237.816406 68.421875 -232.421875 C 68.421875 -227.285156 70.039062 -222.757812 73.28125 -218.84375 C 76.519531 -214.9375 81.515625 -212.984375 88.265625 -212.984375 C 95.828125 -212.984375 101.492188 -215.34375 105.265625 -220.0625 C 109.046875 -224.789062 110.9375 -229.851562 110.9375 -235.25 Z M 22.265625 -152.25 L 52.640625 -152.25 L 23.078125 -45.34375 C 21.460938 -39.40625 20.316406 -34.207031 19.640625 -29.75 C 18.960938 -25.300781 18.625 -21.320312 18.625 -17.8125 C 18.625 -12.957031 19.296875 -9.046875 20.640625 -6.078125 C 21.992188 -3.109375 23.679688 -0.882812 25.703125 0.59375 C 27.734375 2.082031 30.097656 3.097656 32.796875 3.640625 C 35.492188 4.179688 38.191406 4.453125 40.890625 4.453125 C 47.367188 4.453125 53.101562 3.101562 58.09375 0.40625 C 63.09375 -2.289062 67.816406 -6.066406 72.265625 -10.921875 C 76.722656 -15.785156 81.046875 -21.660156 85.234375 -28.546875 C 89.421875 -35.429688 93.804688 -43.054688 98.390625 -51.421875 C 98.929688 -53.046875 99.203125 -53.859375 99.203125 -53.859375 C 99.203125 -55.472656 98.523438 -56.28125 97.171875 -56.28125 C 95.828125 -56.28125 94.75 -55.601562 93.9375 -54.25 C 78.28125 -27.257812 66.539062 -13.765625 58.71875 -13.765625 C 54.9375 -13.765625 53.046875 -16.597656 53.046875 -22.265625 C 53.046875 -26.046875 53.851562 -30.769531 55.46875 -36.4375 L 89.484375 -158.71875 L 23.890625 -158.71875 Z M 22.265625 -152.25 "/></g></g></g><g fill="#ffffff" fill-opacity="1"><g transform="translate(413.276663, 458.548421)"><g><path d="M 201.640625 -57.90625 C 200.296875 -57.90625 199.082031 -56.957031 198 -55.0625 C 189.632812 -38.863281 182.144531 -27.050781 175.53125 -19.625 C 168.914062 -12.207031 163.582031 -8.5 159.53125 -8.5 C 155.207031 -8.5 153.046875 -11.875 153.046875 -18.625 C 153.046875 -20.78125 153.316406 -23.476562 153.859375 -26.71875 C 154.398438 -29.957031 155.617188 -34.953125 157.515625 -41.703125 L 173.296875 -98.390625 C 175.722656 -107.566406 177.273438 -114.25 177.953125 -118.4375 C 178.628906 -122.625 178.96875 -126.203125 178.96875 -129.171875 C 178.96875 -141.585938 175.457031 -150.359375 168.4375 -155.484375 C 161.414062 -160.609375 152.101562 -163.171875 140.5 -163.171875 C 131.863281 -163.171875 124.441406 -162.09375 118.234375 -159.9375 C 112.023438 -157.78125 106.625 -155.148438 102.03125 -152.046875 C 97.445312 -148.941406 93.671875 -145.566406 90.703125 -141.921875 C 87.734375 -138.273438 85.164062 -134.96875 83 -132 L 90.296875 -158.71875 L 29.15625 -158.71875 L 27.9375 -152.25 L 53.859375 -152.25 L 12.140625 0 L 46.5625 0 L 74.09375 -99.203125 C 75.988281 -105.679688 78.957031 -112.226562 83 -118.84375 C 87.050781 -125.457031 91.640625 -131.394531 96.765625 -136.65625 C 101.898438 -141.914062 107.164062 -146.234375 112.5625 -149.609375 C 117.957031 -152.984375 122.953125 -154.671875 127.546875 -154.671875 C 132.128906 -154.671875 136.175781 -152.914062 139.6875 -149.40625 C 143.195312 -145.894531 144.953125 -140.632812 144.953125 -133.625 C 144.953125 -129.84375 144.410156 -125.453125 143.328125 -120.453125 C 142.253906 -115.460938 140.640625 -108.785156 138.484375 -100.421875 L 125.515625 -53.046875 C 123.359375 -44.671875 121.941406 -38.523438 121.265625 -34.609375 C 120.585938 -30.703125 120.25 -27.265625 120.25 -24.296875 C 120.25 -14.304688 122.742188 -6.945312 127.734375 -2.21875 C 132.734375 2.5 139.554688 4.859375 148.203125 4.859375 C 154.941406 4.859375 160.804688 3.507812 165.796875 0.8125 C 170.796875 -1.882812 175.390625 -5.726562 179.578125 -10.71875 C 183.765625 -15.71875 187.8125 -21.660156 191.71875 -28.546875 C 195.632812 -35.429688 199.753906 -43.054688 204.078125 -51.421875 C 204.609375 -53.046875 204.875 -53.988281 204.875 -54.25 C 204.875 -56.6875 203.796875 -57.90625 201.640625 -57.90625 Z M 201.640625 -57.90625 "/></g></g></g><g fill="#177e89" fill-opacity="1"><g transform="translate(176.023441, 455.548424)"><g><path d="M 123.90625 -158.71875 L 91.515625 -158.71875 C 93.941406 -171.132812 96.097656 -183.957031 97.984375 -197.1875 C 99.878906 -210.414062 103.117188 -223.644531 107.703125 -236.875 C 111.484375 -248.207031 116.273438 -255.628906 122.078125 -259.140625 C 127.878906 -262.648438 133.078125 -264.40625 137.671875 -264.40625 C 142.796875 -264.40625 145.765625 -263.863281 146.578125 -262.78125 C 146.847656 -262.507812 146.984375 -262.101562 146.984375 -261.5625 C 146.984375 -259.945312 145.769531 -258.597656 143.34375 -257.515625 C 141.175781 -255.898438 139.484375 -254.007812 138.265625 -251.84375 C 137.054688 -249.6875 136.453125 -246.71875 136.453125 -242.9375 C 136.453125 -237.539062 138.273438 -233.359375 141.921875 -230.390625 C 145.566406 -227.421875 149.679688 -225.9375 154.265625 -225.9375 C 160.203125 -225.9375 164.65625 -227.894531 167.625 -231.8125 C 170.59375 -235.726562 172.078125 -240.25 172.078125 -245.375 C 172.078125 -253.195312 169.242188 -259.398438 163.578125 -263.984375 C 157.910156 -268.578125 149.8125 -270.875 139.28125 -270.875 C 129.03125 -270.875 119.71875 -268.914062 111.34375 -265 C 102.976562 -261.09375 95.421875 -254.753906 88.671875 -245.984375 C 81.921875 -237.210938 75.914062 -225.671875 70.65625 -211.359375 C 65.394531 -197.054688 60.738281 -179.507812 56.6875 -158.71875 L 26.71875 -158.71875 L 24.703125 -151.84375 L 54.65625 -151.84375 C 51.6875 -138.613281 48.109375 -121.066406 43.921875 -99.203125 C 39.742188 -77.335938 35.226562 -53.445312 30.375 -27.53125 C 26.59375 -8.09375 22.675781 9.453125 18.625 25.109375 C 14.570312 40.765625 10.113281 54.125 5.25 65.1875 C 0.394531 76.257812 -4.796875 84.765625 -10.328125 90.703125 C -15.859375 96.640625 -21.863281 99.609375 -28.34375 99.609375 C -31.851562 99.609375 -33.609375 98.929688 -33.609375 97.578125 C -33.609375 96.503906 -32.796875 95.289062 -31.171875 93.9375 C -29.015625 92.582031 -27.125 90.625 -25.5 88.0625 C -23.882812 85.5 -23.078125 82.328125 -23.078125 78.546875 C -23.078125 73.960938 -24.695312 69.914062 -27.9375 66.40625 C -31.175781 62.894531 -35.359375 61.140625 -40.484375 61.140625 C -45.890625 61.140625 -50.34375 62.894531 -53.84375 66.40625 C -57.351562 69.914062 -59.109375 74.910156 -59.109375 81.390625 C -59.109375 86.242188 -58.03125 90.289062 -55.875 93.53125 C -53.71875 96.769531 -51.15625 99.332031 -48.1875 101.21875 C -45.21875 103.113281 -42.046875 104.394531 -38.671875 105.0625 C -35.296875 105.738281 -32.394531 106.078125 -29.96875 106.078125 C -19.707031 106.078125 -10.1875 103.78125 -1.40625 99.1875 C 7.363281 94.601562 15.390625 87.453125 22.671875 77.734375 C 29.960938 68.023438 36.710938 55.539062 42.921875 40.28125 C 49.128906 25.03125 54.929688 6.609375 60.328125 -14.984375 C 68.160156 -46.023438 74.300781 -73.015625 78.75 -95.953125 C 83.207031 -118.898438 87.054688 -137.53125 90.296875 -151.84375 L 122.28125 -151.84375 Z M 123.90625 -158.71875 "/></g></g></g><g fill="#f3a712" fill-opacity="1"><g transform="translate(301.832597, 455.548424)"><g><path d="M 110.9375 -235.25 C 110.9375 -240.375 109.316406 -244.894531 106.078125 -248.8125 C 102.847656 -252.726562 97.859375 -254.6875 91.109375 -254.6875 C 83.546875 -254.6875 77.875 -252.320312 74.09375 -247.59375 C 70.3125 -242.875 68.421875 -237.816406 68.421875 -232.421875 C 68.421875 -227.285156 70.039062 -222.757812 73.28125 -218.84375 C 76.519531 -214.9375 81.515625 -212.984375 88.265625 -212.984375 C 95.828125 -212.984375 101.492188 -215.34375 105.265625 -220.0625 C 109.046875 -224.789062 110.9375 -229.851562 110.9375 -235.25 Z M 22.265625 -152.25 L 52.640625 -152.25 L 23.078125 -45.34375 C 21.460938 -39.40625 20.316406 -34.207031 19.640625 -29.75 C 18.960938 -25.300781 18.625 -21.320312 18.625 -17.8125 C 18.625 -12.957031 19.296875 -9.046875 20.640625 -6.078125 C 21.992188 -3.109375 23.679688 -0.882812 25.703125 0.59375 C 27.734375 2.082031 30.097656 3.097656 32.796875 3.640625 C 35.492188 4.179688 38.191406 4.453125 40.890625 4.453125 C 47.367188 4.453125 53.101562 3.101562 58.09375 0.40625 C 63.09375 -2.289062 67.816406 -6.066406 72.265625 -10.921875 C 76.722656 -15.785156 81.046875 -21.660156 85.234375 -28.546875 C 89.421875 -35.429688 93.804688 -43.054688 98.390625 -51.421875 C 98.929688 -53.046875 99.203125 -53.859375 99.203125 -53.859375 C 99.203125 -55.472656 98.523438 -56.28125 97.171875 -56.28125 C 95.828125 -56.28125 94.75 -55.601562 93.9375 -54.25 C 78.28125 -27.257812 66.539062 -13.765625 58.71875 -13.765625 C 54.9375 -13.765625 53.046875 -16.597656 53.046875 -22.265625 C 53.046875 -26.046875 53.851562 -30.769531 55.46875 -36.4375 L 89.484375 -158.71875 L 23.890625 -158.71875 Z M 22.265625 -152.25 "/></g></g></g><g fill="#7fb069" fill-opacity="1"><g transform="translate(411.230241, 455.548424)"><g><path d="M 201.640625 -57.90625 C 200.296875 -57.90625 199.082031 -56.957031 198 -55.0625 C 189.632812 -38.863281 182.144531 -27.050781 175.53125 -19.625 C 168.914062 -12.207031 163.582031 -8.5 159.53125 -8.5 C 155.207031 -8.5 153.046875 -11.875 153.046875 -18.625 C 153.046875 -20.78125 153.316406 -23.476562 153.859375 -26.71875 C 154.398438 -29.957031 155.617188 -34.953125 157.515625 -41.703125 L 173.296875 -98.390625 C 175.722656 -107.566406 177.273438 -114.25 177.953125 -118.4375 C 178.628906 -122.625 178.96875 -126.203125 178.96875 -129.171875 C 178.96875 -141.585938 175.457031 -150.359375 168.4375 -155.484375 C 161.414062 -160.609375 152.101562 -163.171875 140.5 -163.171875 C 131.863281 -163.171875 124.441406 -162.09375 118.234375 -159.9375 C 112.023438 -157.78125 106.625 -155.148438 102.03125 -152.046875 C 97.445312 -148.941406 93.671875 -145.566406 90.703125 -141.921875 C 87.734375 -138.273438 85.164062 -134.96875 83 -132 L 90.296875 -158.71875 L 29.15625 -158.71875 L 27.9375 -152.25 L 53.859375 -152.25 L 12.140625 0 L 46.5625 0 L 74.09375 -99.203125 C 75.988281 -105.679688 78.957031 -112.226562 83 -118.84375 C 87.050781 -125.457031 91.640625 -131.394531 96.765625 -136.65625 C 101.898438 -141.914062 107.164062 -146.234375 112.5625 -149.609375 C 117.957031 -152.984375 122.953125 -154.671875 127.546875 -154.671875 C 132.128906 -154.671875 136.175781 -152.914062 139.6875 -149.40625 C 143.195312 -145.894531 144.953125 -140.632812 144.953125 -133.625 C 144.953125 -129.84375 144.410156 -125.453125 143.328125 -120.453125 C 142.253906 -115.460938 140.640625 -108.785156 138.484375 -100.421875 L 125.515625 -53.046875 C 123.359375 -44.671875 121.941406 -38.523438 121.265625 -34.609375 C 120.585938 -30.703125 120.25 -27.265625 120.25 -24.296875 C 120.25 -14.304688 122.742188 -6.945312 127.734375 -2.21875 C 132.734375 2.5 139.554688 4.859375 148.203125 4.859375 C 154.941406 4.859375 160.804688 3.507812 165.796875 0.8125 C 170.796875 -1.882812 175.390625 -5.726562 179.578125 -10.71875 C 183.765625 -15.71875 187.8125 -21.660156 191.71875 -28.546875 C 195.632812 -35.429688 199.753906 -43.054688 204.078125 -51.421875 C 204.609375 -53.046875 204.875 -53.988281 204.875 -54.25 C 204.875 -56.6875 203.796875 -57.90625 201.640625 -57.90625 Z M 201.640625 -57.90625 "/></g></g></g></svg>